<svg xmlns="http://www.w3.org/2000/svg" version="1.1" xmlns:xlink="http://www.w3.org/1999/xlink" xmlns:svgjs="http://svgjs.dev/svgjs" width="1000" height="699" viewBox="0 0 1000 699"><g transform="matrix(1,0,0,1,0.522438372927013,0.283199355950444)"><svg viewBox="0 0 353 247" data-background-color="#ffffff" preserveAspectRatio="xMidYMid meet" height="699" width="1000" xmlns="http://www.w3.org/2000/svg" xmlns:xlink="http://www.w3.org/1999/xlink"><g id="tight-bounds" transform="matrix(1,0,0,1,-0.1841909251001539,-0.09992812457832656)"><svg viewBox="0 0 353.3685401965241 247.2" height="247.2" width="353.3685401965241"><g><svg viewBox="0 0 353.3685401965241 247.2" height="247.2" width="353.3685401965241"><g><svg viewBox="0 0 395.52 276.68717748791187" height="247.2" width="353.3685401965241"><g><svg viewBox="0 0 395.52 276.68717748791187" height="276.68717748791187" width="395.52"><g id="textblocktransform"><svg viewBox="0 0 395.52 276.68717748791187" height="276.68717748791187" width="395.52" id="textblock"><g><svg viewBox="0 0 395.52 204.2786966499924" height="204.2786966499924" width="395.52"><path d="M394.594 43.814C392.735 22.61 387.435 16.715 387.435 16.715 371.165-5.125 350.86-0.418 332.619 2.72 300.414 2.848 268.339 7.513 236.208 10.015 168.767 10.396 100.749 4.12 33.643 19.599 27.339 24.349-6.54 20.532 1.121 46.528 3.129 57.342 10.456 69.344 10.232 79.267 11.236 81.006 12.631 77.019 13.226 79.522 15.309 86.264 18.711 83.084 21.501 87.07 17.614 97.715 20.403 106.578 23.062 115.865 18.377 118.283 12.371 117.138 9.675 125.153 9.396 130.963 7.89 129.86 6.235 129.605 5.026 129.436 2.59 130.072 2.999 131.896 4.394 138.13-1.594 141.734 2.162 147.841-0.422 154.457 3.948 160.182 3.353 167.349 3.278 168.791 3.687 170.02 4.338 170.36 7.22 172.183 3.018 175.746 3.464 179.605 33.029 205.983 65.104 187.747 95.394 199.876 103.259 191.394 97.346 202.887 100.489 201.106 102.943 199.028 104.728 207.636 107.499 202.759 107.927 201.36 107.276 198.052 108.8 198.688 109.6 199.028 110.307 198.943 110.418 196.992 110.586 194.066 109.117 195.889 108.726 194.363 112.947 186.644 111.906 205.007 115.866 204.244 115.68 201.996 114.528 198.773 116.889 199.197 119.232 195.974 119.306 193.302 121.389 200.554 121.463 202.123 121.835 203.226 122.43 203.989 128.938 196.101 135.409 206.788 142.233 203.226 146.417 199.324 150.433 205.346 154.672 203.862 156.16 202.675 157.666 200.554 159.098 204.117 176.632 204.88 195.319 201.699 211.943 204.244 256.364 199.494 303.835 206.195 350.674 199.918 361.719 197.501 373.192 194.066 383.958 191.309 383.958 191.309 392.679 183.761 392.679 149.834S394.538 120.148 394.817 93.135C395.096 66.121 396.398 65.018 394.538 43.814Z" opacity="1" fill="#ba3b0a" data-fill-palette-color="tertiary"></path><g transform="matrix(1,0,0,1,55.76832,26.068561146666667)"><svg width="283.98335999999995" viewBox="0.75 -35 66.44000244140625 35.599998474121094" height="152.14157435665908" data-palette-color="#ffffff"><path d="M11.3-35Q14.05-35 16.18-34.02 18.3-33.05 20.1-31.05L20.1-31.05 17.7-28.45Q16.15-29.95 14.65-30.63 13.15-31.3 11.35-31.3L11.35-31.3Q9.2-31.3 7.88-29.93 6.55-28.55 6.55-26.3L6.55-26.3Q6.55-24.1 7.83-22.7 9.1-21.3 12.65-19.95L12.65-19.95Q16.75-18.4 18.85-16.1 20.95-13.8 20.95-9.55L20.95-9.55Q20.95-6.8 19.68-4.48 18.4-2.15 16.05-0.78 13.7 0.6 10.6 0.6L10.6 0.6Q7.5 0.6 5.1-0.55 2.7-1.7 0.75-3.85L0.75-3.85 3.2-6.45Q4.95-4.85 6.68-4 8.4-3.15 10.5-3.15L10.5-3.15Q13.1-3.15 14.65-4.85 16.2-6.55 16.2-9.45L16.2-9.45Q16.2-11.95 14.95-13.45 13.7-14.95 10.3-16.2L10.3-16.2Q5.95-17.85 3.93-20.2 1.9-22.55 1.9-26.1L1.9-26.1Q1.9-28.55 3.1-30.6 4.3-32.65 6.45-33.83 8.6-35 11.3-35L11.3-35ZM41.25-34.45L45.7-34.45 37 0 31.75 0 22.9-34.45 27.5-34.45 34.45-4.9 41.25-34.45ZM46.64-34.45L67.19-34.45 66.69-30.65 59.05-30.65 59.05 0 54.49 0 54.49-30.65 46.64-30.65 46.64-34.45Z" opacity="1" transform="matrix(1,0,0,1,0,0)" fill="#ffffff" class="wordmark-text-0" data-fill-palette-color="quaternary" id="text-0"></path></svg></g></svg></g><g transform="matrix(1,0,0,1,75.54432000000001,240.19567095781505)"><svg viewBox="0 0 244.43135999999996 36.49150653009681" height="36.49150653009681" width="244.43135999999996"><g transform="matrix(1,0,0,1,0,0)"><svg width="244.43135999999996" viewBox="-0.5 -40 360.7200012207031 53.20000076293945" height="36.49150653009681" data-palette-color="#ff2e2e"><path d="M26.65-35.55Q26.5-34.6 26.5-33.1L26.5-33.1Q26.5-30.15 27.2-28.5L27.2-28.5 26.4-28.5Q25.85-29.55 25.6-31.25L25.6-31.25Q25.25-33.05 24.65-34.08 24.05-35.1 22.2-35.8 20.35-36.5 16.65-36.5L16.65-36.5Q16-36.5 15.2-36.4L15.2-36.4 15.2-3Q15.2-2 15.73-1.48 16.25-0.95 17.2-0.95L17.2-0.95Q18-0.95 18.95-1.25L18.95-1.25 18.95 0 7.7 0 7.7-1.25Q8.7-0.95 9.45-0.95L9.45-0.95Q10.4-0.95 10.93-1.48 11.45-2 11.45-3L11.45-3 11.45-36.4Q10.65-36.5 10.05-36.5L10.05-36.5Q6.35-36.5 4.5-35.8 2.65-35.1 2.05-34.08 1.45-33.05 1.1-31.25L1.1-31.25Q0.85-29.55 0.3-28.5L0.3-28.5-0.5-28.5Q0.2-30.15 0.2-33.1L0.2-33.1Q0.2-34.6 0.05-35.55L0.05-35.55-0.1-37 26.8-37 26.65-35.55ZM48.25-3Q48.25-1.75 48.5-1.13 48.75-0.5 49.65-0.5L49.65-0.5Q50.05-0.5 50.9-0.75L50.9-0.75 50.9 0 42.4 0 42.4-0.75Q43.25-0.5 43.65-0.5L43.65-0.5Q44.45-0.5 44.67-1.1 44.9-1.7 44.9-3L44.9-3 44.9-17Q44.9-20.4 43.5-22.08 42.1-23.75 39.75-23.75L39.75-23.75Q37.55-23.75 36.22-22.03 34.9-20.3 34.37-17.95 33.85-15.6 33.85-13.45L33.85-13.45 33.85-3Q33.85-1.7 34.07-1.1 34.3-0.5 35.1-0.5L35.1-0.5Q35.5-0.5 36.35-0.75L36.35-0.75 36.35 0 27.7 0 27.7-0.75Q28.55-0.5 28.95-0.5L28.95-0.5Q29.85-0.5 30.1-1.13 30.35-1.75 30.35-3L30.35-3 30.35-37.4Q29.6-37.15 28.75-37.15L28.75-37.15Q28.4-37.15 27.7-37.25L27.7-37.25 27.7-38.6 28.15-38.6Q28.15-38.25 28.52-38 28.9-37.75 29.4-37.75L29.4-37.75Q30.1-37.75 30.65-38.3 31.2-38.85 32-40L32-40 33.05-40 33.1-19.3 33.8-19.3Q34.7-21.55 36.27-22.98 37.85-24.4 40.2-24.4L40.2-24.4Q42.1-24.4 43.97-23.43 45.85-22.45 47.05-20.63 48.25-18.8 48.25-16.4L48.25-16.4 48.25-3ZM63.35 0.5Q58.6 0.5 56.25-2.68 53.9-5.85 53.9-11.95L53.9-11.95Q53.9-15.15 54.9-17.98 55.9-20.8 58.02-22.58 60.15-24.35 63.25-24.35L63.25-24.35Q68.3-24.35 70.45-21.28 72.6-18.2 72.6-13.9L72.6-13.9Q72.6-13.15 72.5-11.95L72.5-11.95 72.45-11.5 57.4-11.5Q57.6-0.3 63.65-0.3L63.65-0.3Q66.35-0.3 67.65-1.95 68.95-3.6 68.95-5.7L68.95-5.7Q68.95-6.55 68.52-6.95 68.1-7.35 67.45-7.35L67.45-7.35Q66.95-7.35 66.57-7.08 66.2-6.8 66.2-6.4L66.2-6.4 65.75-6.4 65.75-7.75 72.1-7.75Q72.25-5.85 71.17-3.95 70.1-2.05 68.05-0.8 66 0.45 63.35 0.5L63.35 0.5ZM67.8-12.25Q68.7-12.25 68.87-12.43 69.05-12.6 69.1-13.3L69.1-13.3Q69.15-13.85 69.15-14.95L69.15-14.95Q69.15-18.75 67.75-21.25 66.35-23.75 63.05-23.75L63.05-23.75Q59.85-23.75 58.65-20.6 57.45-17.45 57.4-12.25L57.4-12.25 67.8-12.25ZM87.84-1.25Q88.79-0.95 89.59-0.95L89.59-0.95Q90.54-0.95 91.07-1.48 91.59-2 91.59-3L91.59-3 91.59-34Q91.59-35 91.07-35.52 90.54-36.05 89.59-36.05L89.59-36.05Q88.79-36.05 87.84-35.75L87.84-35.75 87.84-37 95.39-37 95.34-3Q95.34-2 95.87-1.48 96.39-0.95 97.34-0.95L97.34-0.95Q98.14-0.95 99.09-1.25L99.09-1.25 99.09 0 87.84 0 87.84-1.25ZM97.84-15.8Q98.34-15.75 99.29-15.75L99.29-15.75Q103.89-15.75 106.29-18.43 108.69-21.1 108.69-25.2L108.69-25.2Q108.69-27.8 107.49-30.43 106.29-33.05 103.99-34.77 101.69-36.5 98.54-36.5L98.54-36.5Q97.39-36.5 96.79-36.45 96.19-36.4 95.39-36.1L95.39-36.1 95.39-37 99.39-37Q102.79-37 105.92-35.7 109.04-34.4 111.04-31.8 113.04-29.2 113.04-25.5L113.04-25.5Q113.04-22.65 111.34-20.18 109.64-17.7 106.74-16.25 103.84-14.8 100.54-14.8L100.54-14.8Q98.94-14.8 97.84-15.05L97.84-15.05 97.84-15.8ZM145.44-0.9Q143.69 0.7 140.54 0.7L140.54 0.7Q138.54 0.7 137.56-0.43 136.59-1.55 136.26-3.23 135.94-4.9 135.74-7.85L135.74-7.85Q135.49-11.6 134.96-13.9 134.44-16.2 132.66-17.82 130.89-19.45 127.24-19.45L127.24-19.45 125.64-19.45 125.64-20.15Q130.34-20.15 132.91-20.98 135.49-21.8 136.56-23.6 137.64-25.4 137.64-28.6L137.64-28.6Q137.64-31.9 135.16-34.2 132.69-36.5 127.19-36.5L127.19-36.5Q125.69-36.5 124.09-36.1L124.09-36.1 124.04-3Q124.04-0.95 125.99-0.95L125.99-0.95Q126.74-0.95 127.69-1.25L127.69-1.25 127.69 0 116.54 0 116.54-1.25Q117.49-0.95 118.29-0.95L118.29-0.95Q119.24-0.95 119.76-1.48 120.29-2 120.29-3L120.29-3 120.29-34Q120.29-35 119.76-35.52 119.24-36.05 118.29-36.05L118.29-36.05Q117.49-36.05 116.54-35.75L116.54-35.75 116.54-37 129.39-37Q134.74-37 138.29-34.85 141.84-32.7 141.84-28.2L141.84-28.2Q141.84-26.1 140.84-24.25 139.84-22.4 137.76-21.18 135.69-19.95 132.64-19.75L132.64-19.75Q135.54-19.75 136.99-18.18 138.44-16.6 138.94-14.38 139.44-12.15 139.69-8.6L139.69-8.6Q139.94-5.05 140.41-3.23 140.89-1.4 142.34-0.85L142.34-0.85Q142.74-0.7 143.19-0.7L143.19-0.7Q144.24-0.7 145.44-1.65L145.44-1.65 145.44-0.9ZM163.79 1Q158.74 1 155.04-1.68 151.34-4.35 149.41-8.85 147.49-13.35 147.44-18.75L147.44-18.75Q147.39-23 148.99-27.43 150.59-31.85 154.14-34.93 157.69-38 163.29-38L163.29-38Q168.94-38 172.56-35.08 176.19-32.15 177.81-27.75 179.44-23.35 179.44-18.75L179.44-18.75Q179.44-13.3 177.69-8.83 175.94-4.35 172.41-1.68 168.89 1 163.79 1L163.79 1ZM163.79 0Q169.84 0 172.56-5.23 175.29-10.45 175.24-18.75L175.24-18.75Q175.19-23.05 173.91-27.25 172.64-31.45 169.96-34.23 167.29-37 163.29-37L163.29-37Q159.24-37 156.64-33.98 154.04-30.95 152.86-26.6 151.69-22.25 151.69-18.2L151.69-18.2Q151.69-13.1 153.01-9 154.34-4.9 157.06-2.45 159.79 0 163.79 0L163.79 0ZM200.58-23.4Q199.83-23.6 198.78-22.45L198.78-22.45Q200.08-21.3 200.73-19.6 201.38-17.9 201.38-16L201.38-16Q201.38-12.3 199.36-10 197.33-7.7 193.08-7.7L193.08-7.7Q189.68-7.7 187.58-9.4L187.58-9.4Q186.48-9.1 186.03-8.22 185.58-7.35 185.58-6.5L185.58-6.5Q185.58-4.1 189.93-4.1L189.93-4.1 195.33-4Q199.58-3.95 201.71-1.68 203.83 0.6 203.83 3.7L203.83 3.7Q203.83 6.15 202.48 8.33 201.13 10.5 198.68 11.85 196.23 13.2 193.08 13.2L193.08 13.2Q190.43 13.2 188.21 12.2 185.98 11.2 184.71 9.53 183.43 7.85 183.43 5.85L183.43 5.85Q183.43 4.45 184.18 3.13 184.93 1.8 186.56 0.9 188.18 0 190.68 0L190.68 0 190.68 0.4Q188.18 0.4 187.33 1.85 186.48 3.3 186.48 5.85L186.48 5.85Q186.48 8.55 188.13 10.43 189.78 12.3 193.08 12.3L193.08 12.3Q196.63 12.3 198.61 10.13 200.58 7.95 200.58 4.05L200.58 4.05Q200.58-1.75 190.58-1.75L190.58-1.75Q184.08-1.75 184.08-5.3L184.08-5.3Q184.08-6.6 184.86-7.95 185.63-9.3 187.18-9.8L187.18-9.8Q185.03-12 185.03-16L185.03-16Q185.03-19.5 187.03-21.93 189.03-24.35 193.08-24.35L193.08-24.35Q196.23-24.35 198.33-22.8L198.33-22.8Q198.98-23.45 199.91-23.88 200.83-24.3 201.68-24.3L201.68-24.3Q202.23-24.3 202.48-24.2L202.48-24.2Q203.23-23.95 203.76-23.38 204.28-22.8 204.28-22.15L204.28-22.15Q204.28-21.65 203.88-21.1L203.88-21.1Q203.38-20.45 202.98-20.45L202.98-20.45Q202.63-20.45 202.38-20.8 202.13-21.15 201.78-21.85L201.78-21.85Q201.43-22.6 201.18-22.98 200.93-23.35 200.58-23.4L200.58-23.4ZM193.08-8.3Q195.73-8.3 196.81-10.35 197.88-12.4 197.88-16L197.88-16Q197.88-19.4 196.78-21.58 195.68-23.75 193.08-23.75L193.08-23.75Q190.53-23.75 189.48-21.58 188.43-19.4 188.43-16L188.43-16Q188.43-12.4 189.46-10.35 190.48-8.3 193.08-8.3L193.08-8.3ZM219.18-20.15Q219.18-19.55 218.98-18.8 218.78-18.05 218.73-17.9L218.73-17.9Q218.33-16.6 218.33-16.15L218.33-16.15Q218.33-15.15 219.78-15.15L219.78-15.15 219.78-14.65Q217.73-14.65 216.86-15.7 215.98-16.75 215.98-18.4L215.98-18.4Q215.98-19.2 216.13-19.95L216.13-19.95Q216.43-21.4 216.43-22.2L216.43-22.2Q216.43-23.05 216.11-23.38 215.78-23.7 215.08-23.7L215.08-23.7Q213.63-23.7 212.83-20.63 212.03-17.55 212.03-13.45L212.03-13.45 212.03-3Q212.03-1.7 212.26-1.1 212.48-0.5 213.28-0.5L213.28-0.5Q213.68-0.5 214.53-0.75L214.53-0.75 214.53 0 206.28 0 206.28-0.75Q207.13-0.5 207.53-0.5L207.53-0.5Q208.43-0.5 208.68-1.13 208.93-1.75 208.93-3L208.93-3 208.93-20.8Q208.18-20.55 207.33-20.55L207.33-20.55Q206.98-20.55 206.28-20.65L206.28-20.65 206.28-22 206.73-22Q206.73-21.65 207.11-21.4 207.48-21.15 207.98-21.15L207.98-21.15Q208.73-21.15 209.28-21.7 209.83-22.25 210.58-23.35L210.58-23.35 211.08-23.35 211.13-19.3 211.63-19.3Q212.23-21.9 213.31-23.13 214.38-24.35 215.58-24.35L215.58-24.35Q217.33-24.35 218.26-23.05 219.18-21.75 219.18-20.15L219.18-20.15ZM228.88 0.5Q226.08 0.5 224.18-1.23 222.28-2.95 222.28-6.15L222.28-6.15Q222.28-8.45 223.83-10.08 225.38-11.7 227.23-12.3L227.23-12.3Q228.18-12.6 229.45-12.88 230.73-13.15 231.18-13.25L231.18-13.25Q233.68-13.75 234.93-14.18 236.18-14.6 236.43-15.35L236.43-15.35Q236.43-18.95 235.05-21.35 233.68-23.75 230.48-23.75L230.48-23.75Q228.48-23.75 227.5-22.33 226.53-20.9 226.53-18.5L226.53-18.5Q226.53-17.85 226.78-17.57 227.03-17.3 227.93-17.3L227.93-17.3Q228.48-17.3 228.88-17.55 229.28-17.8 229.28-18.15L229.28-18.15 229.73-18.15 229.73-16.8 223.18-16.8Q223.18-18.6 224.23-20.38 225.28-22.15 227.13-23.28 228.98-24.4 231.23-24.4L231.23-24.4Q234.23-24.4 236.05-23.03 237.88-21.65 238.65-19.73 239.43-17.8 239.43-15.9L239.43-15.9 239.43-5.05Q239.43-1.3 241.03-1.3L241.03-1.3Q241.53-1.3 241.95-1.98 242.38-2.65 242.38-3.35L242.38-3.35 242.88-3.35Q242.88-1.5 241.75-0.5 240.63 0.5 239.18 0.5L239.18 0.5Q237.48 0.5 236.95-1 236.43-2.5 236.43-5.2L236.43-5.2 236.43-7.5Q236.43-6.8 235.75-4.85 235.08-2.9 233.38-1.2 231.68 0.5 228.88 0.5L228.88 0.5ZM230.03-0.9Q231.73-0.9 233.18-2.25 234.63-3.6 235.48-5.45 236.33-7.3 236.33-8.55L236.33-8.55 236.33-14.25Q236.33-14.1 235.83-13.95 235.33-13.8 234.58-13.65L234.58-13.65Q231.33-12.8 229.83-12.25L229.83-12.25Q227.48-11.4 226.38-9.88 225.28-8.35 225.28-6.45L225.28-6.45Q225.28-4.25 226.5-2.58 227.73-0.9 230.03-0.9L230.03-0.9ZM279.68-3.05Q279.68-1.8 279.93-1.18 280.18-0.55 281.08-0.55L281.08-0.55Q281.48-0.55 282.33-0.8L282.33-0.8 282.33-0.05 273.83-0.05 273.83-0.8Q274.68-0.55 275.08-0.55L275.08-0.55Q275.88-0.55 276.1-1.15 276.33-1.75 276.33-3.05L276.33-3.05 276.33-17.05Q276.33-20.45 274.83-22.13 273.33-23.8 270.98-23.8L270.98-23.8Q269.43-23.8 268.15-22.7 266.88-21.6 266.15-20 265.43-18.4 265.43-17.05L265.43-17.05 265.48-3Q265.48-1.75 265.73-1.13 265.98-0.5 266.88-0.5L266.88-0.5Q267.28-0.5 268.13-0.75L268.13-0.75 268.13 0 259.93 0 259.93-0.75Q260.78-0.5 261.18-0.5L261.18-0.5Q261.98-0.5 262.2-1.1 262.43-1.7 262.43-3L262.43-3 262.43-17Q262.43-20.4 261.03-22.08 259.63-23.75 257.28-23.75L257.28-23.75Q254.98-23.75 253.65-22 252.33-20.25 251.78-17.55L251.78-17.55 251.78-3Q251.78-1.7 252-1.1 252.23-0.5 253.03-0.5L253.03-0.5Q253.43-0.5 254.28-0.75L254.28-0.75 254.28 0 245.78 0 245.78-0.75Q246.63-0.5 247.03-0.5L247.03-0.5Q247.88-0.5 248.15-1.15 248.43-1.8 248.43-3.05L248.43-3.05 248.43-20.95Q247.48-20.55 246.38-20.55L246.38-20.55Q246.08-20.55 245.38-20.65L245.38-20.65 245.38-22 245.83-22Q245.83-21.65 246.2-21.4 246.58-21.15 247.08-21.15L247.08-21.15Q247.78-21.15 248.33-21.7 248.88-22.25 249.68-23.4L249.68-23.4 250.58-23.4 250.58-19.3 251.43-19.3Q253.43-24.4 257.73-24.4L257.73-24.4Q259.73-24.4 261.53-23.38 263.33-22.35 264.28-20.5L264.28-20.5Q264.63-19.8 264.63-19.3L264.63-19.3 265.13-19.3Q265.43-20.35 266.3-21.55 267.18-22.75 268.5-23.6 269.83-24.45 271.43-24.45L271.43-24.45Q273.33-24.45 275.25-23.48 277.18-22.5 278.43-20.68 279.68-18.85 279.68-16.45L279.68-16.45 279.68-3.05ZM319.12-3.05Q319.12-1.8 319.37-1.18 319.62-0.55 320.52-0.55L320.52-0.55Q320.92-0.55 321.77-0.8L321.77-0.8 321.77-0.05 313.27-0.05 313.27-0.8Q314.12-0.55 314.52-0.55L314.52-0.55Q315.32-0.55 315.55-1.15 315.77-1.75 315.77-3.05L315.77-3.05 315.77-17.05Q315.77-20.45 314.27-22.13 312.77-23.8 310.42-23.8L310.42-23.8Q308.87-23.8 307.6-22.7 306.32-21.6 305.6-20 304.87-18.4 304.87-17.05L304.87-17.05 304.92-3Q304.92-1.75 305.17-1.13 305.42-0.5 306.32-0.5L306.32-0.5Q306.72-0.5 307.57-0.75L307.57-0.75 307.57 0 299.37 0 299.37-0.75Q300.22-0.5 300.62-0.5L300.62-0.5Q301.42-0.5 301.65-1.1 301.87-1.7 301.87-3L301.87-3 301.87-17Q301.87-20.4 300.47-22.08 299.07-23.75 296.72-23.75L296.72-23.75Q294.42-23.75 293.1-22 291.77-20.25 291.22-17.55L291.22-17.55 291.22-3Q291.22-1.7 291.45-1.1 291.67-0.5 292.47-0.5L292.47-0.5Q292.87-0.5 293.72-0.75L293.72-0.75 293.72 0 285.22 0 285.22-0.75Q286.07-0.5 286.47-0.5L286.47-0.5Q287.32-0.5 287.6-1.15 287.87-1.8 287.87-3.05L287.87-3.05 287.87-20.95Q286.92-20.55 285.82-20.55L285.82-20.55Q285.52-20.55 284.82-20.65L284.82-20.65 284.82-22 285.27-22Q285.27-21.65 285.65-21.4 286.02-21.15 286.52-21.15L286.52-21.15Q287.22-21.15 287.77-21.7 288.32-22.25 289.12-23.4L289.12-23.4 290.02-23.4 290.02-19.3 290.87-19.3Q292.87-24.4 297.17-24.4L297.17-24.4Q299.17-24.4 300.97-23.38 302.77-22.35 303.72-20.5L303.72-20.5Q304.07-19.8 304.07-19.3L304.07-19.3 304.57-19.3Q304.87-20.35 305.75-21.55 306.62-22.75 307.95-23.6 309.27-24.45 310.87-24.45L310.87-24.45Q312.77-24.45 314.7-23.48 316.62-22.5 317.87-20.68 319.12-18.85 319.12-16.45L319.12-16.45 319.12-3.05ZM334.22 0.5Q329.47 0.5 327.12-2.68 324.77-5.85 324.77-11.95L324.77-11.95Q324.77-15.15 325.77-17.98 326.77-20.8 328.9-22.58 331.02-24.35 334.12-24.35L334.12-24.35Q339.17-24.35 341.32-21.28 343.47-18.2 343.47-13.9L343.47-13.9Q343.47-13.15 343.37-11.95L343.37-11.95 343.32-11.5 328.27-11.5Q328.47-0.3 334.52-0.3L334.52-0.3Q337.22-0.3 338.52-1.95 339.82-3.6 339.82-5.7L339.82-5.7Q339.82-6.55 339.4-6.95 338.97-7.35 338.32-7.35L338.32-7.35Q337.82-7.35 337.45-7.08 337.07-6.8 337.07-6.4L337.07-6.4 336.62-6.4 336.62-7.75 342.97-7.75Q343.12-5.85 342.05-3.95 340.97-2.05 338.92-0.8 336.87 0.45 334.22 0.5L334.22 0.5ZM338.67-12.25Q339.57-12.25 339.75-12.43 339.92-12.6 339.97-13.3L339.97-13.3Q340.02-13.85 340.02-14.95L340.02-14.95Q340.02-18.75 338.62-21.25 337.22-23.75 333.92-23.75L333.92-23.75Q330.72-23.75 329.52-20.6 328.32-17.45 328.27-12.25L328.27-12.25 338.67-12.25ZM359.62-20.15Q359.62-19.55 359.42-18.8 359.22-18.05 359.17-17.9L359.17-17.9Q358.77-16.6 358.77-16.15L358.77-16.15Q358.77-15.15 360.22-15.15L360.22-15.15 360.22-14.65Q358.17-14.65 357.29-15.7 356.42-16.75 356.42-18.4L356.42-18.4Q356.42-19.2 356.57-19.95L356.57-19.95Q356.87-21.4 356.87-22.2L356.87-22.2Q356.87-23.05 356.54-23.38 356.22-23.7 355.52-23.7L355.52-23.7Q354.07-23.7 353.27-20.63 352.47-17.55 352.47-13.45L352.47-13.45 352.47-3Q352.47-1.7 352.69-1.1 352.92-0.5 353.72-0.5L353.72-0.5Q354.12-0.5 354.97-0.75L354.97-0.75 354.97 0 346.72 0 346.72-0.75Q347.57-0.5 347.97-0.5L347.97-0.5Q348.87-0.5 349.12-1.13 349.37-1.75 349.37-3L349.37-3 349.37-20.8Q348.62-20.55 347.77-20.55L347.77-20.55Q347.42-20.55 346.72-20.65L346.72-20.65 346.72-22 347.17-22Q347.17-21.65 347.54-21.4 347.92-21.15 348.42-21.15L348.42-21.15Q349.17-21.15 349.72-21.7 350.27-22.25 351.02-23.35L351.02-23.35 351.52-23.35 351.57-19.3 352.07-19.3Q352.67-21.9 353.74-23.13 354.82-24.35 356.02-24.35L356.02-24.35Q357.77-24.35 358.69-23.05 359.62-21.75 359.62-20.15L359.62-20.15Z" opacity="1" transform="matrix(1,0,0,1,0,0)" fill="#ff2e2e" class="slogan-text-1" data-fill-palette-color="secondary" id="text-1"></path></svg></g></svg></g></svg></g></svg></g><g></g></svg></g></svg></g><defs></defs></svg><rect width="353.3685401965241" height="247.2" fill="none" stroke="none" visibility="hidden"></rect></g></svg></g></svg>